<svg xmlns="http://www.w3.org/2000/svg" version="1.1" xmlns:xlink="http://www.w3.org/1999/xlink" xmlns:svgjs="http://svgjs.dev/svgjs" width="1500" height="659" viewBox="0 0 1500 659"><g transform="matrix(1,0,0,1,-0.9090909090909918,-0.05968438604850235)"><svg viewBox="0 0 396 174" data-background-color="#ffffff" preserveAspectRatio="xMidYMid meet" height="659" width="1500" xmlns="http://www.w3.org/2000/svg" xmlns:xlink="http://www.w3.org/1999/xlink"><g id="tight-bounds" transform="matrix(1,0,0,1,0.2400000000000091,0.1258408803909532)"><svg viewBox="0 0 395.52 173.7483182392181" height="173.7483182392181" width="395.52"><g><svg viewBox="0 0 395.52 173.7483182392181" height="173.7483182392181" width="395.52"><g transform="matrix(1,0,0,1,0,107.38343110866188)"><svg viewBox="0 0 395.52 66.36488713055621" height="66.36488713055621" width="395.52"><g id="textblocktransform"><svg viewBox="0 0 395.52 66.36488713055621" height="66.36488713055621" width="395.52" id="textblock"><g><svg viewBox="0 0 395.52 66.36488713055621" height="66.36488713055621" width="395.52"><g transform="matrix(1,0,0,1,0,0)"><svg width="395.52" viewBox="4.2 -35.45 214.83 36.050000000000004" height="66.36488713055621" data-palette-color="#a53c3c"><path d="M20.95 0L4.2 0 4.2-34.85 10.55-34.85 10.55-5.5 20.95-5.5 20.95 0ZM45.5 0L26.3 0 26.3-34.85 44.5-34.85 44.5-29.4 32.55-29.4 32.55-21.25 42.05-21.25 42.05-15.95 32.55-15.95 32.55-5.65 45.5-5.65 45.5 0ZM62.95 0L56.5 0 56.5-29.2 48.45-29.2 48.45-34.85 71-34.85 71-29.2 62.95-29.2 62.95 0ZM84.59 0.55L84.59 0.55Q80.92 0.55 78.17-0.68 75.42-1.9 74.14-3.25L74.14-3.25 76.69-8.5Q77.22-7.83 78.36-6.98 79.49-6.13 81.01-5.49 82.52-4.85 84.14-4.85L84.14-4.85Q86.02-4.85 87.41-5.9 88.79-6.95 88.79-9L88.79-9Q88.79-11.03 87.36-12.21 85.92-13.4 83.44-14.9L83.44-14.9Q81.42-16.13 79.47-17.51 77.52-18.9 76.23-20.91 74.94-22.93 74.94-26L74.94-26Q74.94-30.13 77.58-32.79 80.22-35.45 85.24-35.45L85.24-35.45Q87.79-35.45 89.58-34.85 91.37-34.25 92.48-33.48 93.59-32.7 94.14-32.2L94.14-32.2 91.34-27.1Q90.99-27.6 90.17-28.33 89.34-29.05 88.14-29.6 86.94-30.15 85.49-30.15L85.49-30.15Q83.47-30.15 82.46-28.99 81.44-27.83 81.44-26.25L81.44-26.25Q81.44-24.23 82.93-22.95 84.42-21.68 86.54-20.4L86.54-20.4Q88.89-19 90.89-17.59 92.89-16.18 94.12-14.21 95.34-12.25 95.34-9.2L95.34-9.2Q95.34-4.63 92.47-2.04 89.59 0.55 84.59 0.55ZM113.09 0.6L113.09 0.6Q110.37 0.6 107.84-0.51 105.32-1.63 103.3-3.89 101.29-6.15 100.12-9.65 98.94-13.15 98.94-17.9L98.94-17.9Q98.94-23.6 100.93-27.51 102.92-31.43 106.25-33.44 109.59-35.45 113.64-35.45L113.64-35.45Q116.39-35.45 118.13-34.93 119.87-34.4 120.9-33.68 121.94-32.95 122.59-32.35L122.59-32.35 119.79-27.1Q118.72-28.28 117.57-28.99 116.42-29.7 113.89-29.7L113.89-29.7Q111.34-29.7 109.55-28.23 107.77-26.75 106.83-24.16 105.89-21.58 105.89-18.25L105.89-18.25Q105.89-11.73 108.08-8.41 110.27-5.1 113.34-5.1L113.34-5.1Q115.72-5.1 117.39-5.78 119.07-6.45 119.89-7.3L119.89-7.3 122.64-2.35Q121.94-1.78 120.78-1.09 119.62-0.4 117.75 0.1 115.89 0.6 113.09 0.6ZM139.44 0.6L139.44 0.6Q134.71 0.6 131.48-1.64 128.24-3.88 126.56-7.93 124.89-11.98 124.89-17.45L124.89-17.45Q124.89-22.88 126.54-26.93 128.19-30.98 131.4-33.21 134.61-35.45 139.29-35.45L139.29-35.45Q144.16-35.45 147.4-33.18 150.64-30.9 152.26-26.85 153.89-22.8 153.89-17.45L153.89-17.45Q153.89-11.98 152.21-7.93 150.54-3.88 147.31-1.64 144.09 0.6 139.44 0.6ZM139.44-4.75L139.44-4.75Q142.71-4.75 144.98-7.91 147.24-11.08 147.24-17.6L147.24-17.6Q147.24-23.88 145.13-27.06 143.01-30.25 139.29-30.25L139.29-30.25Q135.66-30.25 133.63-27.05 131.59-23.85 131.59-17.55L131.59-17.55Q131.59-11.03 133.75-7.89 135.91-4.75 139.44-4.75ZM172.84 0.6L172.84 0.6Q168.11 0.6 164.87-1.64 161.64-3.88 159.96-7.93 158.29-11.98 158.29-17.45L158.29-17.45Q158.29-22.88 159.94-26.93 161.59-30.98 164.8-33.21 168.01-35.45 172.69-35.45L172.69-35.45Q177.56-35.45 180.8-33.18 184.04-30.9 185.66-26.85 187.29-22.8 187.29-17.45L187.29-17.45Q187.29-11.98 185.61-7.93 183.94-3.88 180.71-1.64 177.49 0.6 172.84 0.6ZM172.84-4.75L172.84-4.75Q176.11-4.75 178.37-7.91 180.64-11.08 180.64-17.6L180.64-17.6Q180.64-23.88 178.52-27.06 176.41-30.25 172.69-30.25L172.69-30.25Q169.06-30.25 167.02-27.05 164.99-23.85 164.99-17.55L164.99-17.55Q164.99-11.03 167.15-7.89 169.31-4.75 172.84-4.75ZM199.78 0L193.43 0 193.43-34.85 199.78-34.85 199.78-17.5 210.88-34.85 218.23-34.85 206.36-17.55 219.03 0 211.03 0 199.78-16.73 199.78 0Z" opacity="1" transform="matrix(1,0,0,1,0,0)" fill="#a53c3c" class="wordmark-text-0" data-fill-palette-color="primary" id="text-0"></path></svg></g></svg></g></svg></g></svg></g><g transform="matrix(1,0,0,1,141.01198726454112,0)"><svg viewBox="0 0 113.49602547091776 91.71627401442869" height="91.71627401442869" width="113.49602547091776"><g><svg xmlns="http://www.w3.org/2000/svg" xmlns:xlink="http://www.w3.org/1999/xlink" version="1.1" x="0" y="0" viewBox="2.210645211560571 14.516293233322473 95.31443224220024 77.02370676667753" enable-background="new 0 0 100 100" xml:space="preserve" height="91.71627401442869" width="113.49602547091776" class="icon-icon-0" data-fill-palette-color="accent" id="icon-0"><g fill="#cf0000" data-fill-palette-color="accent"><path fill="#cf0000" d="M40.181 57.492C39.882 57.492 39.58 57.401 39.32 57.213A7.5 7.5 0 0 1 36.23 51.161 7.5 7.5 0 0 1 39.283 45.136 1.47 1.47 0 0 1 41.024 47.505 4.5 4.5 0 0 0 39.17 51.161C39.17 52.609 39.871 53.981 41.045 54.832A1.47 1.47 0 0 1 40.181 57.492" data-fill-palette-color="accent"></path></g><g fill="#cf0000" data-fill-palette-color="accent"><path fill="#cf0000" d="M57.472 57.492C57.173 57.492 56.871 57.401 56.611 57.213A7.5 7.5 0 0 1 53.521 51.161 7.5 7.5 0 0 1 56.574 45.136 1.47 1.47 0 0 1 58.315 47.505 4.5 4.5 0 0 0 56.461 51.161C56.461 52.609 57.162 53.981 58.336 54.832A1.47 1.47 0 0 1 57.472 57.492" data-fill-palette-color="accent"></path></g><g fill="#cf0000" data-fill-palette-color="accent"><path fill="#cf0000" d="M40.729 47.325A1.47 1.47 0 0 1 39.857 44.67 4.5 4.5 0 0 0 41.711 41.014C41.711 39.566 41.01 38.194 39.836 37.343A1.47 1.47 0 0 1 41.561 34.962 7.5 7.5 0 0 1 44.651 41.014 7.5 7.5 0 0 1 41.598 47.039 1.46 1.46 0 0 1 40.729 47.325" data-fill-palette-color="accent"></path></g><g fill="#cf0000" data-fill-palette-color="accent"><path fill="#cf0000" d="M31.394 57.492C31.095 57.492 30.793 57.401 30.533 57.213A7.5 7.5 0 0 1 27.443 51.161 7.5 7.5 0 0 1 30.496 45.136 1.47 1.47 0 0 1 32.237 47.505 4.5 4.5 0 0 0 30.383 51.161C30.383 52.609 31.084 53.981 32.258 54.832A1.47 1.47 0 0 1 31.394 57.492" data-fill-palette-color="accent"></path></g><g fill="#cf0000" data-fill-palette-color="accent"><path fill="#cf0000" d="M31.942 47.325A1.47 1.47 0 0 1 31.07 44.67 4.5 4.5 0 0 0 32.924 41.014C32.924 39.566 32.223 38.194 31.049 37.343A1.47 1.47 0 0 1 32.774 34.962 7.5 7.5 0 0 1 35.864 41.014 7.5 7.5 0 0 1 32.811 47.039 1.46 1.46 0 0 1 31.942 47.325" data-fill-palette-color="accent"></path></g><g fill="#cf0000" data-fill-palette-color="accent"><path fill="#cf0000" d="M65.69 57.492C65.391 57.492 65.089 57.401 64.829 57.213A7.5 7.5 0 0 1 61.739 51.161 7.5 7.5 0 0 1 64.794 45.136 1.47 1.47 0 0 1 66.535 47.505 4.5 4.5 0 0 0 64.68 51.161C64.68 52.609 65.381 53.981 66.555 54.832A1.47 1.47 0 0 1 65.69 57.492" data-fill-palette-color="accent"></path></g><g fill="#cf0000" data-fill-palette-color="accent"><path fill="#cf0000" d="M66.239 47.325A1.47 1.47 0 0 1 65.367 44.67 4.5 4.5 0 0 0 67.222 41.014 4.54 4.54 0 0 0 65.345 37.344 1.47 1.47 0 0 1 67.07 34.962 7.5 7.5 0 0 1 70.162 41.014 7.5 7.5 0 0 1 67.107 47.039 1.46 1.46 0 0 1 66.239 47.325" data-fill-palette-color="accent"></path></g><g fill="#cf0000" data-fill-palette-color="accent"><path fill="#cf0000" d="M40.181 37.326A1.46 1.46 0 0 1 39.32 37.046 7.5 7.5 0 0 1 36.23 30.994 7.5 7.5 0 0 1 39.283 24.968 1.47 1.47 0 0 1 41.024 27.338 4.5 4.5 0 0 0 39.17 30.994C39.17 32.442 39.871 33.814 41.045 34.665A1.47 1.47 0 0 1 40.181 37.326" data-fill-palette-color="accent"></path></g><g fill="#cf0000" data-fill-palette-color="accent"><path fill="#cf0000" d="M48.556 57.492C48.257 57.492 47.955 57.401 47.695 57.213A7.5 7.5 0 0 1 44.605 51.161 7.5 7.5 0 0 1 47.658 45.136 1.47 1.47 0 0 1 49.399 47.505 4.5 4.5 0 0 0 47.545 51.161C47.545 52.609 48.246 53.981 49.42 54.832A1.47 1.47 0 0 1 48.556 57.492" data-fill-palette-color="accent"></path></g><g fill="#cf0000" data-fill-palette-color="accent"><path fill="#cf0000" d="M49.104 47.325A1.47 1.47 0 0 1 48.232 44.67 4.5 4.5 0 0 0 50.086 41.014C50.086 39.566 49.385 38.194 48.211 37.343A1.47 1.47 0 0 1 49.936 34.962 7.5 7.5 0 0 1 53.026 41.014 7.5 7.5 0 0 1 49.973 47.039 1.46 1.46 0 0 1 49.104 47.325" data-fill-palette-color="accent"></path></g><g fill="#cf0000" data-fill-palette-color="accent"><path fill="#cf0000" d="M48.556 37.326A1.46 1.46 0 0 1 47.695 37.046 7.5 7.5 0 0 1 44.605 30.994 7.5 7.5 0 0 1 47.658 24.968 1.47 1.47 0 0 1 49.399 27.338 4.5 4.5 0 0 0 47.545 30.994C47.545 32.442 48.246 33.814 49.42 34.665A1.47 1.47 0 0 1 48.556 37.326" data-fill-palette-color="accent"></path></g><g fill="#cf0000" data-fill-palette-color="accent"><path fill="#cf0000" d="M40.729 27.159A1.47 1.47 0 0 1 39.857 24.504 4.5 4.5 0 0 0 41.711 20.848C41.711 19.4 41.01 18.028 39.836 17.177A1.47 1.47 0 0 1 41.561 14.796 7.5 7.5 0 0 1 44.651 20.848 7.5 7.5 0 0 1 41.598 26.874 1.46 1.46 0 0 1 40.729 27.159" data-fill-palette-color="accent"></path></g><g fill="#cf0000" data-fill-palette-color="accent"><path fill="#cf0000" d="M56.499 37.326C56.2 37.326 55.898 37.235 55.638 37.047A7.5 7.5 0 0 1 52.546 30.995 7.5 7.5 0 0 1 55.601 24.969 1.47 1.47 0 0 1 57.342 27.339 4.5 4.5 0 0 0 55.487 30.995 4.54 4.54 0 0 0 57.364 34.665 1.47 1.47 0 0 1 56.499 37.326" data-fill-palette-color="accent"></path></g><g fill="#cf0000" data-fill-palette-color="accent"><path fill="#cf0000" d="M57.046 27.159A1.47 1.47 0 0 1 56.174 24.504 4.5 4.5 0 0 0 58.029 20.848 4.54 4.54 0 0 0 56.152 17.178 1.47 1.47 0 0 1 57.877 14.796 7.5 7.5 0 0 1 60.969 20.848 7.5 7.5 0 0 1 57.914 26.874 1.46 1.46 0 0 1 57.046 27.159" data-fill-palette-color="accent"></path></g><g fill="#cf0000" data-fill-palette-color="accent"><path fill="#cf0000" d="M70.248 91.54H29.523C25.861 91.54 20.397 88.915 19.412 85.264L3.318 80.711A1.47 1.47 0 1 1 4.118 77.883L21.126 82.694A1.47 1.47 0 0 1 22.195 84.108C22.195 86.191 26.63 88.601 29.522 88.601H70.247C73.141 88.601 77.576 86.191 77.576 84.108A1.47 1.47 0 0 1 78.645 82.694L95.655 77.883A1.467 1.467 0 0 1 97.469 78.897 1.467 1.467 0 0 1 96.455 80.711L80.359 85.264C79.375 88.915 73.911 91.54 70.248 91.54" data-fill-palette-color="accent"></path></g><g fill="#cf0000" data-fill-palette-color="accent"><path fill="#cf0000" d="M71.908 86.256H28.158A1.47 1.47 0 1 1 28.158 83.316H71.908A1.47 1.47 0 1 1 71.908 86.256" data-fill-palette-color="accent"></path></g><g fill="#cf0000" data-fill-palette-color="accent"><path fill="#cf0000" d="M95.574 80.256H4.077A1.47 1.47 0 1 1 4.077 77.316H95.574A1.47 1.47 0 1 1 95.574 80.256" data-fill-palette-color="accent"></path></g><g fill="#cf0000" data-fill-palette-color="accent"><path fill="#cf0000" d="M21.573 74.256A1.47 1.47 0 0 1 20.682 71.616C28.033 66.022 36.402 63.066 44.884 63.066 53.041 63.066 61.093 65.799 68.236 70.982L77.455 64.696A1.471 1.471 0 0 1 79.111 67.126L69.027 74.001A1.47 1.47 0 0 1 67.309 73.956C60.473 68.755 52.719 66.006 44.884 66.006 37.05 66.006 29.297 68.755 22.461 73.956A1.46 1.46 0 0 1 21.573 74.256" data-fill-palette-color="accent"></path></g></svg></g></svg></g><g></g></svg></g><defs></defs></svg><rect width="395.52" height="173.7483182392181" fill="none" stroke="none" visibility="hidden"></rect></g></svg></g></svg>